<?xml version="1.0" encoding="utf-8"?><svg viewBox="0 0 173 40" xmlns="http://www.w3.org/2000/svg" xmlns:xlink="http://www.w3.org/1999/xlink"><style>:root>svg{display:none}:root>svg:target{display:block}</style><svg fill="none" viewBox="0 0 26 26" id="footer-facebook" xmlns="http://www.w3.org/2000/svg"><path d="M19.5 2.167h-3.25a5.417 5.417 0 00-5.417 5.416v3.25h-3.25v4.333h3.25v8.667h4.334v-8.666h3.25l1.083-4.334h-4.333v-3.25A1.083 1.083 0 0116.25 6.5h3.25V2.167z" stroke="#fff" stroke-width="2" stroke-linecap="round" stroke-linejoin="round"/></svg><svg fill="none" viewBox="0 0 26 26" id="footer-instagram" xmlns="http://www.w3.org/2000/svg"><path d="M13 2c-2.985 0-3.36.014-4.533.066-1.173.055-1.972.24-2.672.512-.734.276-1.4.709-1.948 1.269a5.4 5.4 0 00-1.27 1.948c-.272.699-.457 1.499-.511 2.668C2.014 9.638 2 10.013 2 13c0 2.987.014 3.36.066 4.534.055 1.171.24 1.97.512 2.67a5.403 5.403 0 001.269 1.948c.61.612 1.223.989 1.947 1.27.7.272 1.498.457 2.67.511C9.638 23.986 10.012 24 13 24c2.988 0 3.36-.014 4.535-.066 1.17-.055 1.971-.24 2.671-.512a5.386 5.386 0 001.947-1.269 5.404 5.404 0 001.27-1.948c.27-.7.456-1.499.511-2.67.052-1.173.066-1.547.066-4.535 0-2.988-.014-3.362-.066-4.536-.055-1.17-.24-1.97-.512-2.669a5.4 5.4 0 00-1.269-1.948 5.379 5.379 0 00-1.948-1.27c-.701-.272-1.502-.457-2.672-.511C16.36 2.014 15.986 2 12.997 2h.004H13zm-.986 1.983h.987c2.937 0 3.285.01 4.444.063 1.073.048 1.656.228 2.044.378.512.2.88.439 1.265.824a3.4 3.4 0 01.822 1.265c.151.386.33.97.378 2.042.054 1.159.065 1.507.065 4.442 0 2.936-.011 3.285-.065 4.444-.048 1.073-.228 1.654-.378 2.042-.177.478-.458.91-.824 1.264-.385.385-.75.623-1.265.822-.385.151-.968.33-2.042.38-1.159.052-1.507.064-4.444.064-2.937 0-3.286-.012-4.445-.065-1.072-.049-1.654-.228-2.042-.379a3.407 3.407 0 01-1.265-.822 3.41 3.41 0 01-.825-1.265c-.15-.387-.33-.97-.378-2.042-.052-1.16-.063-1.507-.063-4.446 0-2.937.01-3.283.063-4.442.05-1.073.228-1.656.38-2.043.199-.513.438-.88.823-1.265.385-.385.75-.623 1.265-.823.388-.15.97-.33 2.042-.38 1.015-.046 1.408-.06 3.458-.061v.003zm6.859 1.826a1.32 1.32 0 100 2.64 1.32 1.32 0 000-2.64zM13 7.35a5.65 5.65 0 10-.176 11.3 5.65 5.65 0 00.176-11.3zm0 1.982a3.667 3.667 0 110 7.333 3.667 3.667 0 010-7.333z" fill="#fff"/></svg><svg fill="none" viewBox="0 0 26 26" id="footer-telegram" xmlns="http://www.w3.org/2000/svg"><path d="M21.182 3.247c-.261.019-.517.08-.758.18h-.003c-.232.093-1.333.556-3.007 1.258L11.416 7.21c-4.303 1.812-8.534 3.596-8.534 3.596l.05-.02s-.291.096-.596.305a1.65 1.65 0 00-.476.46c-.15.22-.27.556-.225.903.073.586.453.938.726 1.132.276.197.54.289.54.289h.006l3.968 1.336c.178.571 1.209 3.961 1.456 4.742.147.466.289.758.467.98.086.114.187.21.308.286a.91.91 0 00.2.086l-.041-.01c.012.003.022.013.03.017.033.009.055.012.097.018.628.19 1.132-.2 1.132-.2l.029-.022 2.342-2.133 3.926 3.012.09.038c.818.359 1.646.16 2.084-.194.442-.355.613-.809.613-.809l.029-.073L22.67 5.408c.086-.384.108-.743.013-1.091a1.468 1.468 0 00-.634-.851 1.52 1.52 0 00-.867-.22zM21.1 4.912c-.003.051.006.046-.016.144v.009l-3.006 15.38c-.013.023-.035.07-.095.118-.063.05-.114.082-.378-.022l-4.802-3.682-2.9 2.644.61-3.892L18.357 8.3c.323-.3.215-.364.215-.364.023-.37-.488-.108-.488-.108l-9.893 6.128-.004-.016-4.741-1.597v-.003l-.013-.002a.213.213 0 00.025-.01l.026-.013.025-.009 8.538-3.596 5.995-2.527c1.67-.701 2.904-1.215 2.974-1.243.067-.026.035-.026.083-.026z" fill="#fff"/></svg><svg fill="none" viewBox="0 0 26 26" id="footer-whatsapp" xmlns="http://www.w3.org/2000/svg"><path d="M18.116 15.232c-.277-.142-1.655-.818-1.912-.91-.256-.096-.444-.141-.63.143-.187.282-.72.909-.888 1.1-.163.187-.328.21-.604.07-1.646-.822-2.725-1.467-3.809-3.328-.287-.495.287-.46.823-1.529.091-.188.045-.348-.026-.49-.07-.142-.63-1.518-.863-2.08-.226-.545-.46-.469-.63-.48-.162-.01-.348-.01-.535-.01-.188 0-.49.072-.747.349-.256.281-.98.96-.98 2.335 0 1.377 1.003 2.71 1.14 2.898.142.188 1.973 3.01 4.784 4.227 1.777.767 2.473.833 3.361.7.541-.08 1.656-.675 1.887-1.332.231-.655.231-1.216.162-1.333-.068-.124-.256-.196-.533-.33z" fill="#fff"/><path d="M23.491 8.592a11.379 11.379 0 00-2.445-3.638 11.282 11.282 0 00-3.638-2.445A11.321 11.321 0 0013 1.625h-.05A11.349 11.349 0 001.624 13.053a11.41 11.41 0 001.219 5.076v3.86c0 .644.523 1.167 1.168 1.167h3.862a11.41 11.41 0 005.075 1.219h.054c1.52 0 2.996-.294 4.384-.87a11.285 11.285 0 003.626-2.418 11.348 11.348 0 003.362-8.036 11.332 11.332 0 00-.884-4.459zm-3.836 11.121A9.395 9.395 0 0113 22.445h-.043a9.479 9.479 0 01-4.395-1.104l-.214-.114H4.773v-3.575l-.114-.214a9.48 9.48 0 01-1.104-4.395 9.387 9.387 0 012.732-6.698 9.374 9.374 0 016.672-2.79h.044a9.4 9.4 0 013.66.733 9.386 9.386 0 013.022 2.032 9.406 9.406 0 012.765 6.723 9.41 9.41 0 01-2.795 6.67z" fill="#fff"/></svg><svg fill="none" viewBox="0 0 26 26" id="footer-youtube" xmlns="http://www.w3.org/2000/svg"><path d="M24.375 12.929c0-.056 0-.12-.003-.193-.002-.206-.007-.437-.012-.683a38.175 38.175 0 00-.112-2.08c-.076-.916-.188-1.68-.34-2.254a3.543 3.543 0 00-2.496-2.501c-.719-.193-2.125-.313-4.106-.386-.942-.036-1.95-.059-2.958-.071-.353-.005-.68-.008-.975-.01h-.746c-.295.002-.622.005-.975.01-1.008.012-2.016.035-2.958.07-1.98.077-3.39.196-4.106.387a3.538 3.538 0 00-2.496 2.5c-.155.574-.264 1.339-.34 2.255a38.237 38.237 0 00-.112 2.08c-.007.246-.01.477-.012.683 0 .073-.003.137-.003.193v.142c0 .056 0 .12.003.193.002.206.007.437.012.683.02.708.056 1.414.112 2.08.076.916.188 1.68.34 2.254a3.538 3.538 0 002.496 2.501c.716.193 2.125.312 4.106.386.942.036 1.95.059 2.958.071.353.005.68.008.975.01h.746c.295-.002.622-.005.975-.01 1.008-.012 2.016-.035 2.958-.07 1.98-.077 3.39-.196 4.106-.387a3.534 3.534 0 002.496-2.5c.155-.575.264-1.339.34-2.256a38.18 38.18 0 00.112-2.079c.007-.246.01-.477.012-.683 0-.074.003-.137.003-.193v-.142zm-1.828.132c0 .053 0 .112-.003.18-.002.198-.007.417-.012.653a34.29 34.29 0 01-.107 1.978c-.069.817-.165 1.488-.284 1.937a1.708 1.708 0 01-1.204 1.206c-.533.142-1.876.256-3.702.325a115.139 115.139 0 01-3.872.079h-.726l-.96-.008a115.42 115.42 0 01-2.912-.071c-1.826-.071-3.171-.183-3.702-.325a1.713 1.713 0 01-1.204-1.206c-.119-.45-.215-1.12-.284-1.937a36.782 36.782 0 01-.107-1.978c-.007-.236-.01-.457-.012-.653 0-.068-.003-.13-.003-.18v-.122c0-.053 0-.112.003-.18.002-.198.007-.417.012-.653.018-.675.054-1.35.107-1.978.069-.817.165-1.488.284-1.937a1.708 1.708 0 011.204-1.206c.533-.142 1.876-.257 3.702-.325a115.362 115.362 0 013.872-.079h.726l.96.008c.993.012 1.985.035 2.912.07 1.826.072 3.171.184 3.702.326.584.157 1.046.62 1.204 1.206.119.45.215 1.12.284 1.937.053.627.086 1.303.107 1.978.007.236.01.457.012.653 0 .068.003.13.003.18v.122zM10.74 16.402l5.89-3.428-5.89-3.376v6.804z" fill="#fff"/></svg><svg fill="none" viewBox="0 0 173 32" id="logo" xmlns="http://www.w3.org/2000/svg"><path d="M2.47 22.27c-.76 0-1.34-.21-1.74-.63-.4-.42-.6-1.01-.6-1.77V2.98c0-1.6.78-2.4 2.34-2.4 1.54 0 2.31.8 2.31 2.4v16.89c0 1.6-.77 2.4-2.31 2.4zM10.926 22.27c-1.52 0-2.28-.77-2.28-2.31V9.31c0-1.52.74-2.28 2.22-2.28 1.48 0 2.22.76 2.22 2.28v.12c.5-.8 1.17-1.41 2.01-1.83.84-.42 1.78-.63 2.82-.63 1.74 0 3.04.51 3.9 1.53.86 1 1.29 2.55 1.29 4.65v6.81c0 1.54-.76 2.31-2.28 2.31-.72 0-1.28-.2-1.68-.6-.38-.4-.57-.97-.57-1.71v-6.6c0-1.02-.19-1.75-.57-2.19-.38-.46-.94-.69-1.68-.69-.96 0-1.73.3-2.31.9-.56.6-.84 1.4-.84 2.4v6.18c0 1.54-.75 2.31-2.25 2.31zM32.218 22.33c-1.28 0-2.41-.31-3.39-.93-.96-.64-1.71-1.53-2.25-2.67-.54-1.16-.81-2.53-.81-4.11 0-1.58.27-2.94.81-4.08.54-1.14 1.29-2.02 2.25-2.64.98-.62 2.11-.93 3.39-.93.98 0 1.88.21 2.7.63.82.42 1.44.98 1.86 1.68V2.89c0-1.54.75-2.31 2.25-2.31 1.52 0 2.28.77 2.28 2.31v17.07c0 1.54-.75 2.31-2.25 2.31s-2.25-.77-2.25-2.31v-.09c-.4.76-1.02 1.36-1.86 1.8-.82.44-1.73.66-2.73.66zm1.35-3.39c.96 0 1.74-.35 2.34-1.05.62-.7.93-1.79.93-3.27 0-1.46-.31-2.53-.93-3.21-.6-.7-1.38-1.05-2.34-1.05s-1.74.35-2.34 1.05c-.6.68-.9 1.75-.9 3.21 0 1.48.3 2.57.9 3.27.6.7 1.38 1.05 2.34 1.05zM51.879 22.33c-1.58 0-2.96-.31-4.14-.93a6.8 6.8 0 01-2.7-2.67c-.64-1.16-.96-2.53-.96-4.11 0-1.56.32-2.91.96-4.05a6.552 6.552 0 012.7-2.67c1.18-.62 2.56-.93 4.14-.93 1.58 0 2.95.31 4.11.93 1.18.62 2.09 1.51 2.73 2.67.66 1.14.99 2.49.99 4.05 0 1.58-.33 2.95-.99 4.11-.64 1.14-1.55 2.03-2.73 2.67-1.16.62-2.53.93-4.11.93zm0-3.39c.96 0 1.74-.35 2.34-1.05.62-.7.93-1.79.93-3.27 0-1.46-.31-2.53-.93-3.21-.6-.7-1.38-1.05-2.34-1.05s-1.74.35-2.34 1.05c-.6.68-.9 1.75-.9 3.21 0 1.48.3 2.57.9 3.27.6.7 1.38 1.05 2.34 1.05zM78.614 22.27c-.76 0-1.34-.21-1.74-.63-.4-.42-.6-1.01-.6-1.77V4.69h-5.31c-1.3 0-1.95-.64-1.95-1.92 0-1.28.65-1.92 1.95-1.92h15.27c1.3 0 1.95.64 1.95 1.92 0 1.28-.65 1.92-1.95 1.92h-5.31v15.18c0 .76-.2 1.35-.6 1.77-.38.42-.95.63-1.71.63zM89.766 22.27c-1.56 0-2.34-.77-2.34-2.31V9.31c0-1.52.74-2.28 2.22-2.28 1.48 0 2.22.76 2.22 2.28v.54c.72-1.78 2.21-2.74 4.47-2.88.5-.04.88.09 1.14.39.28.28.43.75.45 1.41.04.62-.09 1.11-.39 1.47-.28.36-.76.58-1.44.66l-.69.06c-2.24.22-3.36 1.36-3.36 3.42v5.58c0 1.54-.76 2.31-2.28 2.31zM104.622 22.33c-1.1 0-2.07-.21-2.91-.63-.84-.42-1.51-.99-2.01-1.71-.48-.72-.72-1.53-.72-2.43 0-1.06.28-1.91.84-2.55.56-.64 1.47-1.09 2.73-1.35 1.26-.28 2.93-.42 5.01-.42h1.08v-.51c0-.88-.2-1.5-.6-1.86-.4-.38-1.08-.57-2.04-.57-.54 0-1.13.07-1.77.21-.64.12-1.33.33-2.07.63-.56.24-1.03.26-1.41.06a1.57 1.57 0 01-.75-.96c-.12-.44-.09-.88.09-1.32.2-.44.58-.76 1.14-.96.94-.36 1.82-.61 2.64-.75.84-.16 1.61-.24 2.31-.24 2.28 0 3.98.52 5.1 1.56 1.12 1.02 1.68 2.61 1.68 4.77v6.66c0 1.54-.7 2.31-2.1 2.31-1.42 0-2.13-.77-2.13-2.31v-.18c-.3.78-.81 1.4-1.53 1.86-.7.46-1.56.69-2.58.69zm1.02-3.03c.84 0 1.55-.29 2.13-.87.58-.58.87-1.33.87-2.25v-.6h-1.05c-1.54 0-2.63.14-3.27.42-.64.26-.96.72-.96 1.38 0 .56.19 1.02.57 1.38.4.36.97.54 1.71.54zM122.435 22.27c-1.18 0-2.04-.62-2.58-1.86l-4.53-10.44c-.34-.78-.35-1.46-.03-2.04.32-.6.98-.9 1.98-.9.54 0 .98.13 1.32.39.34.24.64.71.9 1.41l3.09 7.8 3.18-7.83c.28-.68.59-1.14.93-1.38.34-.26.81-.39 1.41-.39.76 0 1.3.3 1.62.9.32.58.3 1.25-.06 2.01l-4.62 10.47c-.52 1.24-1.39 1.86-2.61 1.86zM139.519 22.33c-1.74 0-3.24-.31-4.5-.93-1.24-.64-2.2-1.53-2.88-2.67-.66-1.16-.99-2.52-.99-4.08 0-1.52.32-2.85.96-3.99.66-1.16 1.55-2.06 2.67-2.7 1.14-.66 2.45-.99 3.93-.99 2.14 0 3.84.68 5.1 2.04 1.26 1.34 1.89 3.16 1.89 5.46 0 .76-.47 1.14-1.41 1.14h-8.82c.16 1.16.58 2.01 1.26 2.55.7.52 1.66.78 2.88.78.48 0 1.02-.05 1.62-.15.62-.12 1.21-.32 1.77-.6.58-.28 1.07-.33 1.47-.15.4.16.67.44.81.84.16.4.16.82 0 1.26-.14.42-.47.77-.99 1.05-.7.38-1.48.66-2.34.84-.84.2-1.65.3-2.43.3zm-.63-12.36c-.96 0-1.74.29-2.34.87-.58.58-.94 1.39-1.08 2.43h6.48c-.12-2.2-1.14-3.3-3.06-3.3zM153.644 22.33c-3.54 0-5.31-1.97-5.31-5.91V2.89c0-1.54.76-2.31 2.28-2.31 1.5 0 2.25.77 2.25 2.31v13.35c0 .82.17 1.43.51 1.83.36.38.83.57 1.41.57.16 0 .31-.01.45-.03.16-.02.31-.03.45-.03.32-.02.54.08.66.3.14.22.21.67.21 1.35 0 1.16-.49 1.82-1.47 1.98-.2.02-.43.04-.69.06-.26.04-.51.06-.75.06zM56 30.5a1.5 1.5 0 011.5-1.5h114a1.5 1.5 0 010 3h-114a1.5 1.5 0 01-1.5-1.5z" fill="#FCB500"/></svg><svg fill="none" viewBox="0 0 40 40" id="why-1" xmlns="http://www.w3.org/2000/svg"><path d="M20 0C8.946 0 0 8.945 0 20c0 11.054 8.945 20 20 20 11.054 0 20-8.945 20-20C40 8.946 31.055 0 20 0zm0 37.333c-9.558 0-17.333-7.775-17.333-17.333 0-9.558 7.775-17.333 17.333-17.333 9.558 0 17.333 7.775 17.333 17.333 0 9.558-7.775 17.333-17.333 17.333z" fill="#303030"/><path d="M26.614 11.607l-9.713 4.67a1.333 1.333 0 00-.623.624l-4.671 9.713c-.545 1.133.646 2.325 1.78 1.78l9.712-4.671c.273-.132.492-.351.624-.624l4.67-9.713c.545-1.132-.646-2.325-1.78-1.78zm-5.092 9.915l-5.863 2.82 2.82-5.864 5.863-2.82-2.82 5.864z" fill="#303030"/></svg><svg fill="none" viewBox="0 0 40 40" id="why-2" xmlns="http://www.w3.org/2000/svg"><path d="M35.703 9.453h-8.281V6.72a3.52 3.52 0 00-3.516-3.516h-7.812a3.52 3.52 0 00-3.516 3.516v2.734H4.297A4.302 4.302 0 000 13.75V32.5a4.302 4.302 0 004.297 4.297h31.406A4.302 4.302 0 0040 32.5V13.75a4.302 4.302 0 00-4.297-4.297zM14.922 6.72c0-.646.526-1.172 1.172-1.172h7.812c.646 0 1.172.526 1.172 1.172v2.734H14.922V6.72zM6.25 34.453H4.297A1.955 1.955 0 012.344 32.5V13.75c0-1.077.876-1.953 1.953-1.953H6.25v22.656zm25.156 0H8.594V11.797h2.952a4.775 4.775 0 00-.364 1.855c.008 1.45.68 2.636 1.182 3.322L11.11 19.91c-.145.339-.122.727.063 1.046l4.296 7.442a1.171 1.171 0 001.601.43l5.413-3.126a1.172 1.172 0 00.429-1.6l-4.297-7.443a1.173 1.173 0 00-.875-.577l-3.427-.413c-.298-.389-.782-1.154-.787-2.03-.004-.636.24-1.242.74-1.842h17.14v22.656zm-17.91-14.161l.958-2.245 2.424.291 3.418 5.92-3.383 1.954-3.418-5.92zM37.655 32.5a1.955 1.955 0 01-1.953 1.953H33.75V11.797h1.953c1.077 0 1.953.876 1.953 1.953V32.5z" fill="#303030"/><path d="M25.469 21.172a3.52 3.52 0 003.515-3.516 3.52 3.52 0 00-3.515-3.515 3.52 3.52 0 00-3.516 3.515 3.52 3.52 0 003.516 3.516zm0-4.688a1.173 1.173 0 010 2.344 1.173 1.173 0 01-1.172-1.172c0-.646.526-1.172 1.172-1.172z" fill="#303030"/></svg><svg fill="none" viewBox="0 0 40 40" id="why-3" xmlns="http://www.w3.org/2000/svg"><path d="M32.852 5.093c-3.79-.679-7.28-2.748-9.022-3.921A6.835 6.835 0 0020 0a6.835 6.835 0 00-3.83 1.172c-1.743 1.173-5.232 3.242-9.021 3.921A4.691 4.691 0 003.276 9.71v9.43c0 3.116.871 6.153 2.59 9.027 1.345 2.248 3.208 4.398 5.538 6.387 3.918 3.346 7.797 5.09 7.96 5.163L20 40l.636-.283c.163-.072 4.042-1.817 7.96-5.163 2.33-1.99 4.193-4.139 5.538-6.387 1.719-2.874 2.59-5.911 2.59-9.027V9.71a4.691 4.691 0 00-3.872-4.617zm.746 14.047c0 4.645-2.346 9.014-6.974 12.987-2.69 2.309-5.42 3.814-6.624 4.425C17.234 35.147 6.402 29.01 6.402 19.14V9.71c0-.757.546-1.405 1.298-1.54 4.353-.78 8.269-3.095 10.216-4.405a3.721 3.721 0 014.168 0C24.031 5.075 27.947 7.39 32.3 8.17a1.568 1.568 0 011.298 1.54v9.43z" fill="#303030"/><path d="M17.58 23.003L12.236 18l-2.136 2.282 7.68 7.19 12.217-13.7-2.334-2.08-10.085 11.31z" fill="#303030"/></svg><svg fill="none" viewBox="0 0 40 40" id="why-4" xmlns="http://www.w3.org/2000/svg"><path d="M36.909 3.09A10.478 10.478 0 0029.449 0a10.48 10.48 0 00-7.46 3.09l-9.45 9.45-9.449 9.45A10.485 10.485 0 000 29.45a10.48 10.48 0 003.09 7.46A10.478 10.478 0 0010.55 40a10.48 10.48 0 007.46-3.09l9.45-9.45 9.449-9.45a10.484 10.484 0 003.09-7.46 10.48 10.48 0 00-3.09-7.46zM16.02 34.92a7.688 7.688 0 01-5.47 2.267 7.685 7.685 0 01-5.472-2.267 7.685 7.685 0 01-2.266-5.47A7.69 7.69 0 015.08 23.98l8.455-8.456 10.942 10.943-8.455 8.454zM34.92 16.022l-8.454 8.455-10.942-10.943 8.455-8.454a7.687 7.687 0 015.47-2.267c2.067 0 4.01.805 5.471 2.267a7.685 7.685 0 012.266 5.47c0 2.066-.805 4.01-2.266 5.472z" fill="#303030"/><path d="M33.21 9.485c-.448 0-.89-.214-1.162-.61a3.52 3.52 0 00-5.392-.505 1.407 1.407 0 01-1.99-1.99 6.286 6.286 0 014.477-1.854c2.09 0 4.044 1.03 5.227 2.758a1.407 1.407 0 01-1.16 2.201z" fill="#303030"/></svg><svg fill="none" viewBox="0 0 40 40" id="why-5" xmlns="http://www.w3.org/2000/svg"><g clip-path="url(#kclip0_31_242)"><path d="M37.2 16.315a9.496 9.496 0 002.8-6.83 9.498 9.498 0 00-2.897-6.79A9.481 9.481 0 0030.267.002a9.496 9.496 0 00-6.743 2.944 9.573 9.573 0 00-2.624 5.93c-.02.279-.05.556-.09.83-2.114-1.427-4.238-2.491-6.108-3.046-3.445-1.023-5.25-.155-6.159.753-1.542 1.543-1.61 4.28-.197 7.721a12.696 12.696 0 00-4.592 2.953c-5.004 5.005-5.004 13.149 0 18.154A12.75 12.75 0 0012.83 40a12.75 12.75 0 009.075-3.76 12.887 12.887 0 002.953-4.593c1.643.675 3.125 1.012 4.394 1.012 1.388 0 2.52-.403 3.326-1.21.91-.91 1.778-2.72.748-6.174-.557-1.87-1.622-3.993-3.049-6.106.253-.032.508-.057.765-.073a9.551 9.551 0 006.158-2.782zM20.248 34.584a10.42 10.42 0 01-7.418 3.073 10.42 10.42 0 01-7.418-3.073c-4.09-4.092-4.09-10.748 0-14.84a10.376 10.376 0 013.95-2.485c.412.763.88 1.535 1.396 2.305a7.792 7.792 0 00-3.497 2.03c-3.07 3.072-3.07 8.068 0 11.139a7.823 7.823 0 005.569 2.307c2.103 0 4.08-.82 5.568-2.307a7.894 7.894 0 002.03-3.498c.77.516 1.542.985 2.304 1.398a10.524 10.524 0 01-2.484 3.95zm-7.97-12.93a36.228 36.228 0 002.85 3.212 36.23 36.23 0 003.205 2.845 5.54 5.54 0 01-1.592 3.365 5.494 5.494 0 01-3.911 1.62 5.494 5.494 0 01-3.911-1.62 5.54 5.54 0 010-7.824 5.473 5.473 0 013.259-1.582 1.16 1.16 0 00.1-.017zm18.802 4.292c.538 1.805.48 3.208-.16 3.848-.83.83-2.837.682-5.37-.395-2.848-1.212-6.043-3.468-8.765-6.19-2.722-2.723-4.978-5.918-6.189-8.768-1.077-2.533-1.225-4.54-.395-5.37.638-.639 2.035-.699 3.833-.165 1.847.549 4.008 1.683 6.153 3.22a10.677 10.677 0 01-2.42 3.76l-.254.256a1.172 1.172 0 000 1.657l4.568 4.569a1.171 1.171 0 001.658 0l.057-.057a10.955 10.955 0 014.036-2.551c1.55 2.155 2.694 4.328 3.248 6.186zm-8.138-6.032l-2.962-2.962c1.899-2.159 3.048-4.937 3.258-7.912a7.225 7.225 0 011.98-4.475 7.169 7.169 0 015.092-2.22 7.151 7.151 0 015.159 2.03 7.171 7.171 0 012.188 5.127 7.169 7.169 0 01-2.115 5.156 7.207 7.207 0 01-4.647 2.1c-2.97.186-5.755 1.298-7.953 3.156z" fill="#303030"/></g><defs><clipPath id="kclip0_31_242"><path fill="#fff" d="M0 0h40v40H0z"/></clipPath></defs></svg><svg fill="none" viewBox="0 0 40 40" id="why-6" xmlns="http://www.w3.org/2000/svg"><path d="M38.828 18.828H1.172C.525 18.828 0 19.353 0 20c0 6.152 3.735 11.697 9.375 14.05v2.356c0 .647.525 1.172 1.172 1.172h18.906c.647 0 1.172-.525 1.172-1.172V34.05C36.293 31.685 40 26.124 40 20c0-.647-.525-1.172-1.172-1.172zm-1.225 2.344c-.074.8-.223 1.584-.44 2.344H2.837a12.79 12.79 0 01-.44-2.344h35.206zM29.062 32.14c-.468.166-.78.609-.78 1.105v1.99H11.718v-1.99c0-.496-.313-.939-.781-1.105a12.912 12.912 0 01-7.174-6.28h32.472a12.912 12.912 0 01-7.174 6.28zM12.14 13.797c.458.458 1.2.458 1.657 0a4.491 4.491 0 000-6.344 2.142 2.142 0 010-3.03 1.172 1.172 0 00-1.657-1.658 4.491 4.491 0 000 6.345 2.142 2.142 0 010 3.03 1.172 1.172 0 000 1.657zM19.171 13.797c.458.458 1.2.458 1.658 0a4.491 4.491 0 000-6.344 2.142 2.142 0 010-3.03 1.172 1.172 0 10-1.658-1.658 4.491 4.491 0 000 6.345 2.142 2.142 0 010 3.03 1.172 1.172 0 000 1.657zM26.203 13.797c.457.458 1.2.458 1.657 0a4.491 4.491 0 000-6.344 2.142 2.142 0 010-3.03 1.172 1.172 0 00-1.657-1.658 4.491 4.491 0 000 6.345 2.142 2.142 0 010 3.03 1.172 1.172 0 000 1.657z" fill="#303030"/></svg></svg>